<svg width="50" height="50" viewBox="0 0 50 50" fill="none" xmlns="http://www.w3.org/2000/svg">
<path d="M9 0.0142975C12.3602 0.0120356 15.7204 0.00977374 19.1824 0.0074433C20.7732 0.00594568 20.7732 0.00594568 22.3961 0.0044178C23.6923 0.00392247 23.6923 0.00392247 24.2994 0.00383043C24.7506 0.00372167 25.2019 0.00324995 25.6532 0.0025989C26.1144 0.00194265 26.5755 0.00170443 27.0367 0.00185628C27.2866 0.00192764 27.5364 0.00182158 27.7863 0.00122348C29.6646 -0.00305355 29.6646 -0.00305356 30.5301 0.123965C30.6141 0.13516 30.6981 0.14625 30.7822 0.157242C32.3436 0.3615 33.8792 0.880765 35.2421 1.65932C35.2969 1.69054 35.2969 1.69054 35.3527 1.7224C35.6064 1.86997 35.8437 2.03311 36.0791 2.20765C36.1065 2.22766 36.1339 2.24766 36.1622 2.26827C36.4868 2.50549 36.7952 2.7521 37.0877 3.02716C37.1673 3.10148 37.2476 3.17176 37.3322 3.24036C37.4447 3.33416 37.5384 3.43877 37.6334 3.54966C37.6854 3.60903 37.7392 3.66698 37.794 3.72387C39.3338 5.32199 40.1881 7.46791 40.5067 9.62623C40.5133 9.67092 40.5133 9.67092 40.5201 9.71652C40.956 12.8217 40.1474 16.0649 38.245 18.5716C38.2136 18.6126 38.1822 18.6535 38.1507 18.6944C38.1253 18.7274 38.0999 18.7604 38.0737 18.7943C37.9098 19.0015 37.733 19.1948 37.5517 19.387C37.4742 19.4693 37.3995 19.5536 37.3253 19.6387C37.1825 19.8006 37.0308 19.9527 36.8767 20.1041C36.8504 20.1303 36.824 20.1564 36.7969 20.1834C36.6254 20.3526 36.4483 20.5129 36.264 20.6684C36.2441 20.6855 36.2241 20.7025 36.2035 20.7201C35.0854 21.6747 33.8426 22.4639 32.5537 23.1723C32.4599 23.224 32.3663 23.276 32.2728 23.3281C32.2167 23.3593 32.1607 23.3904 32.1046 23.4215C32.0811 23.4347 32.0576 23.4478 32.0333 23.4614C31.7594 23.6125 31.4772 23.748 31.196 23.8853C31.1718 23.8971 31.1476 23.909 31.1227 23.9211C30.4633 24.2426 29.7999 24.5523 29.1275 24.8464C28.8301 24.9768 28.5341 25.1101 28.2378 25.243C27.7329 25.4694 27.2274 25.694 26.7198 25.9142C26.2367 26.1238 25.7554 26.3368 25.2747 26.5516C25.2423 26.5661 25.2099 26.5805 25.1766 26.5954C24.3713 26.955 23.5742 27.323 22.8008 27.7461C22.6309 27.8388 22.4602 27.9278 22.2859 28.0122C22.0421 28.1317 21.8089 28.2665 21.5754 28.4046C21.5538 28.4173 21.5321 28.4301 21.5098 28.4432C20.7034 28.9184 19.9089 29.4122 19.1731 29.9902C19.1419 30.0144 19.1107 30.0386 19.0785 30.0636C18.3635 30.622 17.6434 31.2287 17.0645 31.9276C17.0494 31.9457 17.0343 31.9638 17.0187 31.9825C16.5331 32.5652 16.0996 33.1658 15.7328 33.8286C15.7147 33.8606 15.6966 33.8927 15.678 33.9258C14.8808 35.346 14.4278 36.9467 14.2603 38.5579C14.2508 38.649 14.241 38.7401 14.2313 38.8311C14.225 38.8908 14.2187 38.9504 14.2124 39.0101C14.2096 39.0364 14.2068 39.0628 14.2039 39.09C14.1588 39.5271 14.1364 39.9622 14.1345 40.4016C14.1341 40.4535 14.1337 40.5055 14.1334 40.5574C14.1324 40.6967 14.1316 40.8359 14.1308 40.9751C14.13 41.1213 14.129 41.2675 14.128 41.4136C14.1262 41.6897 14.1245 41.9657 14.1229 42.2417C14.1211 42.5562 14.1191 42.8708 14.117 43.1853C14.1128 43.8317 14.1089 44.478 14.1051 45.1243C16.1353 45.1213 18.1655 45.118 20.1957 45.1141C20.4357 45.1136 20.6757 45.1132 20.9158 45.1127C20.9635 45.1126 21.0113 45.1126 21.0606 45.1125C21.8329 45.111 22.6052 45.1098 23.3775 45.1087C24.1708 45.1076 24.964 45.1062 25.7573 45.1045C26.2462 45.1035 26.7352 45.1027 27.2241 45.1021C27.56 45.1018 27.8959 45.1011 28.2318 45.1002C28.4252 45.0998 28.6186 45.0994 28.812 45.0993C29.5606 45.099 30.3032 45.098 31.048 45.0147C31.1226 45.0068 31.1973 44.999 31.2719 44.9912C31.7786 44.938 32.2618 44.8293 32.7497 44.6857C32.7824 44.6761 32.8151 44.6664 32.8488 44.6565C33.8205 44.3651 34.7598 43.9376 35.5982 43.3697C35.6301 43.3482 35.6301 43.3482 35.6627 43.3263C35.9914 43.104 36.2984 42.8623 36.597 42.602C36.6334 42.5705 36.6699 42.5389 36.7075 42.5065C37.9866 41.3764 38.927 39.8789 39.4085 38.2518C39.4211 38.2096 39.4338 38.1675 39.4469 38.124C39.734 37.1182 39.8369 36.0951 39.8316 35.0532C39.8315 35.0066 39.8313 34.96 39.8312 34.912C39.8287 34.2106 39.8055 33.531 39.6674 32.8415C39.6597 32.8014 39.6519 32.7612 39.644 32.7198C39.3426 31.1932 38.7143 29.7201 37.7438 28.4914C37.7231 28.4643 37.7024 28.4372 37.681 28.4093C37.2051 27.7901 36.6651 27.2131 36.0421 26.7367C36.0031 26.7056 35.9643 26.6743 35.9255 26.643C34.9662 25.8746 33.8196 25.2409 32.6387 24.8723C32.6387 24.8482 32.6387 24.8241 32.6387 24.7992C32.6711 24.7841 32.7035 24.7689 32.737 24.7533C33.3724 24.4503 33.973 24.0836 34.5762 23.7231C34.6102 23.7028 34.6443 23.6826 34.6793 23.6617C34.9058 23.5254 35.1233 23.3794 35.3392 23.2273C35.3914 23.1912 35.4437 23.1552 35.496 23.1192C36.1634 22.6578 36.8139 22.1676 37.4108 21.6189C37.6023 21.6907 37.7699 21.7888 37.9449 21.893C37.9778 21.9126 38.0108 21.9322 38.0447 21.9524C38.3246 22.1208 38.5921 22.3012 38.8536 22.4962C38.8842 22.519 38.8842 22.519 38.9155 22.5422C39.2949 22.8247 39.665 23.1175 40.0158 23.4344C40.0925 23.503 40.1702 23.5699 40.2486 23.6366C40.4249 23.7888 40.591 23.9502 40.7564 24.1138C40.7875 24.1446 40.8187 24.1754 40.8508 24.2072C41.0336 24.3896 41.2064 24.5728 41.3659 24.7757C41.4414 24.8703 41.5205 24.9603 41.6012 25.0506C41.8492 25.3293 42.0676 25.6236 42.2789 25.9302C42.3274 26.0004 42.3763 26.0702 42.4254 26.14C42.69 26.5196 42.919 26.9185 43.1448 27.3216C43.161 27.3502 43.1772 27.3789 43.1939 27.4084C43.9256 28.7062 44.3954 30.1488 44.6916 31.6009C44.697 31.6275 44.7025 31.6541 44.7081 31.6815C44.7839 32.0545 44.8406 32.427 44.8835 32.805C44.8874 32.8389 44.8914 32.8728 44.8954 32.9077C44.905 32.9907 44.914 33.0738 44.9228 33.1568C44.9257 33.183 44.9285 33.2092 44.9315 33.2362C44.9409 33.324 44.9492 33.4117 44.9574 33.4995C44.9608 33.5324 44.9642 33.5653 44.9677 33.5992C45.0058 34.0281 45 34.4582 44.9993 34.8884C44.9991 35.0249 44.9993 35.1614 44.9995 35.2979C44.9997 35.9333 44.9915 36.562 44.8973 37.1917C44.891 37.2342 44.8847 37.2768 44.8782 37.3206C44.4456 40.1231 43.332 42.9346 41.3321 45.0147C41.2902 45.0617 41.2486 45.1089 41.2073 45.1563C40.885 45.5211 40.5512 45.8624 40.1853 46.1845C40.155 46.2122 40.1247 46.2399 40.0934 46.2684C39.2115 47.0715 38.1741 47.7212 37.1149 48.2682C37.0886 48.2818 37.0623 48.2955 37.0352 48.3097C35.6725 49.0163 34.1676 49.5042 32.6549 49.7761C32.5859 49.7889 32.5859 49.7889 32.5155 49.802C31.3117 50.0087 30.1024 50.002 28.8847 49.9992C28.6207 49.9986 28.3566 49.9987 28.0926 49.9988C27.6056 49.9989 27.1186 49.9985 26.6316 49.9979C26.1503 49.9972 25.669 49.9968 25.1877 49.9967C25.1577 49.9967 25.1276 49.9967 25.0966 49.9967C24.9438 49.9966 24.7911 49.9966 24.6383 49.9966C23.56 49.9963 22.4818 49.9956 21.4035 49.9946C20.3568 49.9935 19.3101 49.9928 18.2634 49.9923C18.2311 49.9923 18.1987 49.9923 18.1654 49.9923C17.8406 49.9921 17.5158 49.992 17.191 49.9918C16.5296 49.9916 15.8681 49.9913 15.2066 49.9909C15.1762 49.9909 15.1458 49.9909 15.1145 49.9909C13.0887 49.9899 11.0628 49.9881 9.03699 49.9863C9.03273 48.7162 9.02949 47.4462 9.02755 46.1761C9.02732 46.0251 9.02708 45.8741 9.02683 45.7231C9.02678 45.6931 9.02674 45.663 9.02669 45.6321C9.02589 45.1497 9.02443 44.6673 9.02272 44.1849C9.02097 43.6875 9.01996 43.1901 9.01959 42.6927C9.01936 42.4144 9.01882 42.136 9.01744 41.8577C9.00522 39.3282 9.23237 36.797 10.1115 34.4004C10.1474 34.302 10.1821 34.2032 10.2166 34.1043C10.4626 33.4071 10.7624 32.7282 11.1075 32.0733C11.149 31.9942 11.1897 31.9147 11.2304 31.8353C11.4495 31.4114 11.6958 31.0097 11.9595 30.6116C11.9735 30.5903 11.9875 30.569 12.0019 30.547C12.4359 29.8872 12.9203 29.2703 13.4392 28.6742C13.4606 28.6493 13.482 28.6244 13.5041 28.5988C13.6507 28.4303 13.8039 28.2679 13.9571 28.1053C13.9786 28.0824 14.0001 28.0595 14.0223 28.036C14.2138 27.8335 14.406 27.6306 14.6207 27.4518C14.7227 27.3651 14.8183 27.2754 14.912 27.1799C15.0541 27.0376 15.2068 26.9127 15.3646 26.7877C15.4566 26.7139 15.5467 26.6384 15.6362 26.5617C15.9748 26.2727 16.3343 26.0114 16.6946 25.7497C16.7302 25.7237 16.7302 25.7237 16.7664 25.6973C17.8763 24.8895 19.0831 24.2148 20.2958 23.5719C20.3811 23.5266 20.4662 23.4809 20.5513 23.4351C20.811 23.2956 21.0739 23.1669 21.342 23.0439C21.5093 22.9672 21.6745 22.8873 21.839 22.8046C22.8995 22.2748 23.9917 21.8016 25.0798 21.3302C25.5296 21.1352 25.9777 20.9366 26.4255 20.7372C26.4993 20.7043 26.5732 20.6715 26.6471 20.6387C27.3675 20.3185 28.0823 19.9888 28.7914 19.6448C28.8206 19.6307 28.8499 19.6165 28.88 19.602C29.0486 19.5203 29.2161 19.4367 29.3833 19.3524C29.417 19.3355 29.4507 19.3186 29.4854 19.3012C30.1779 18.9537 30.854 18.5851 31.4919 18.1461C31.5118 18.1324 31.5317 18.1188 31.5522 18.1047C32.0988 17.7287 32.6036 17.3243 33.0826 16.8666C33.1134 16.8374 33.1134 16.8374 33.1448 16.8075C33.752 16.2293 34.2496 15.5596 34.6363 14.8195C34.6479 14.7973 34.6595 14.7752 34.6714 14.7525C34.964 14.184 35.1619 13.5764 35.3022 12.9551C35.3097 12.9244 35.3172 12.8938 35.3249 12.8621C35.5298 11.964 35.5385 10.9296 35.3392 10.0306C35.3285 9.98123 35.3285 9.98123 35.3175 9.93083C35.0502 8.73716 34.4857 7.73147 33.6375 6.85026C33.6161 6.82712 33.5946 6.80399 33.5725 6.78015C32.8716 6.0475 31.8905 5.55906 30.937 5.2418C30.9098 5.23235 30.8826 5.2229 30.8546 5.21316C30.6592 5.14626 30.4645 5.09676 30.2619 5.05673C30.2346 5.05087 30.2073 5.045 30.1792 5.03896C29.3746 4.87826 28.5501 4.90147 27.7337 4.90122C27.5508 4.90108 27.368 4.90053 27.1851 4.90003C26.8692 4.89922 26.5533 4.89867 26.2374 4.89829C25.7806 4.89776 25.3239 4.89683 24.8672 4.8958C24.1259 4.89414 23.3847 4.8928 22.6434 4.89166C21.9238 4.89056 21.2043 4.8893 20.4847 4.88784C20.4403 4.88775 20.3958 4.88766 20.35 4.88757C20.1271 4.88712 19.9041 4.88666 19.6812 4.8862C17.8348 4.88242 15.9884 4.87916 14.1421 4.87624C14.1423 4.94265 14.1423 4.94265 14.1424 5.0104C14.148 6.9615 14.1531 8.9126 14.1562 10.8637C14.1562 10.8932 14.1563 10.9228 14.1563 10.9532C14.1573 11.5951 14.1582 12.2369 14.1591 12.8788C14.1595 13.1936 14.1599 13.5084 14.1604 13.8231C14.1604 13.8544 14.1604 13.8858 14.1605 13.918C14.1619 14.9335 14.1644 15.9489 14.1675 16.9643C14.1706 18.0077 14.1727 19.0511 14.1733 20.0945C14.1734 20.2419 14.1735 20.3892 14.1737 20.5366C14.1737 20.5656 14.1737 20.5946 14.1737 20.6245C14.1741 21.0914 14.1757 21.5584 14.1776 22.0254C14.1796 22.4948 14.1803 22.9641 14.1799 23.4335C14.1796 23.7124 14.1803 23.9913 14.1823 24.2703C14.1837 24.4785 14.1833 24.6867 14.1823 24.8949C14.1822 24.9792 14.1826 25.0635 14.1836 25.1478C14.191 25.7775 14.191 25.7775 14.0704 25.9793C13.9875 26.0629 13.9082 26.1249 13.8091 26.1884C13.7601 26.2297 13.7115 26.2715 13.6636 26.3142C13.6395 26.3346 13.6155 26.3551 13.5907 26.3762C13.4344 26.5135 13.2884 26.6612 13.1409 26.8075C13.1091 26.8388 13.0774 26.8701 13.0446 26.9023C12.8601 27.0849 12.6844 27.272 12.5144 27.4678C12.4606 27.5266 12.4066 27.5852 12.3525 27.6437C12.1775 27.8356 12.0124 28.0343 11.8485 28.2355C11.8138 28.2773 11.7791 28.3192 11.7444 28.361C11.4664 28.698 11.2092 29.0466 10.9606 29.4053C10.9441 29.429 10.9276 29.4528 10.9106 29.4773C10.5677 29.9728 10.2593 30.4873 9.96612 31.0129C9.93901 31.0615 9.91177 31.11 9.88441 31.1584C9.69628 31.4924 9.53084 31.8339 9.37456 32.1835C9.35737 32.2219 9.34019 32.2603 9.32248 32.2999C9.22807 32.5143 9.145 32.7282 9.07399 32.9512C9.04957 32.9512 9.02516 32.9512 9 32.9512C9 22.082 9 11.2128 9 0.0142975Z" fill="white"/>
</svg>
